<mxfile host="app.diagrams.net" modified="2021-01-31T12:26:14.091Z" agent="5.0 (Macintosh; Intel Mac OS X 11_1_0) AppleWebKit/537.36 (KHTML, like Gecko) Chrome/88.0.4324.96 Safari/537.36" etag="mtfWj5theMRNM-ON3CVv" version="14.1.9" type="github">
  <diagram id="iVBmKFgplll5oUHV7Jnx" name="第 1 页">
    <mxGraphModel dx="2066" dy="1072" grid="1" gridSize="10" guides="1" tooltips="1" connect="1" arrows="1" fold="1" page="1" pageScale="1" pageWidth="827" pageHeight="1169" math="0" shadow="0">
      <root>
        <mxCell id="0" />
        <mxCell id="1" parent="0" />
        <mxCell id="SpDVIERAmwwqhRBwcDv1-1" value="util.ts" style="swimlane;" vertex="1" parent="1">
          <mxGeometry x="302" y="180" width="140" height="110" as="geometry" />
        </mxCell>
        <mxCell id="SpDVIERAmwwqhRBwcDv1-7" value="import {weblogger} &lt;br&gt;from &#39;/log.ts&#39;" style="text;html=1;align=center;verticalAlign=middle;resizable=0;points=[];autosize=1;" vertex="1" parent="SpDVIERAmwwqhRBwcDv1-1">
          <mxGeometry x="10" y="50" width="120" height="30" as="geometry" />
        </mxCell>
        <mxCell id="SpDVIERAmwwqhRBwcDv1-9" value="log.ts" style="swimlane;fontSize=14;" vertex="1" parent="1">
          <mxGeometry x="170" y="320" width="140" height="110" as="geometry" />
        </mxCell>
        <mxCell id="SpDVIERAmwwqhRBwcDv1-10" value="import bridge &lt;br&gt;from &#39;./bridge&#39;" style="text;html=1;align=center;verticalAlign=middle;resizable=0;points=[];autosize=1;" vertex="1" parent="SpDVIERAmwwqhRBwcDv1-9">
          <mxGeometry x="25" y="50" width="90" height="30" as="geometry" />
        </mxCell>
        <mxCell id="SpDVIERAmwwqhRBwcDv1-11" value="bridge.ts" style="swimlane;" vertex="1" parent="1">
          <mxGeometry x="440" y="320" width="140" height="110" as="geometry" />
        </mxCell>
        <mxCell id="SpDVIERAmwwqhRBwcDv1-12" value="import {isInbrowser} &lt;br&gt;from &#39;/util.ts&#39;" style="text;html=1;align=center;verticalAlign=middle;resizable=0;points=[];autosize=1;" vertex="1" parent="SpDVIERAmwwqhRBwcDv1-11">
          <mxGeometry x="9" y="50" width="120" height="30" as="geometry" />
        </mxCell>
        <mxCell id="SpDVIERAmwwqhRBwcDv1-17" value="" style="shape=image;verticalLabelPosition=bottom;labelBackgroundColor=#ffffff;verticalAlign=top;aspect=fixed;imageAspect=0;image=data:image/png,iVBORw0KGgoAAAANSUhEUgAAAPsAAAD/CAYAAAA346CwAAAACXBIWXMAAAsSAAALEgHS3X78AAAc40lEQVR4Xu2dfaxmR13Hv/N0+0YRWpEKWuxqFQMR2UbUGhUWixGM0F0qVIzSWzWC0aa3hkTp7t7n3HuzxhKw25pQFWNv/cvXdNsmmGC0u4YoqKW3RYVQcG9f2BowetdC95buPmPOec69+7ycc+Z3XuacmTnfm/AHfebtfH/z2ZnfzG9mFPhHBahALxRQvfhKfmTnCugl3ILnsaZux6nOG9PTBhD2nhq+zc/WQ9wDYAHAOrawl8C3qf65ugh7N7r3ptYJ0Le/mcB3ZH3C3pHwPlebADzCEbWKR4u+Q/8WXoqLcAzAnpl0BL6DDkDYOxDd5yoT31vhCIBNjLC3BvBH1TL2+6yFb20n7L5ZrMP26kN4PQZYn2hCGeA3AFw60/w1tYybOvykXlVN2Htl7uofm07JY9B3z5QiA378D0U8pSfw1c1QKydhryVffzLrIe4DsC/niwm8B12BsHtgpK6bOOGnFzVFtOiWugIc4TswKmHvQHSfqszw0wm8TwacaCth99RwbTS7wE8n8G0YoOE6CHvDgoZUnMFPtwe8RqRWsBySli58C2F3wQoOtkHop9sEfkGt4F4HpfG2SYTdW9PZa3hJP72oIaLAGb2EG6GwNleQBoFv0MyEvUExQyiqop9e9OmiwBkCb7/3EHb7GntVQw0/ncA7bmnC7riB2mxeA346gW/TYCXrIuwlBQs1eYN+OoF3tJMQdkcN02azLPjp+c3XWFQruNP0ffThTQqV/52wl9csuByW/PQi4EWr7DnAi+LwgzNSAx9E2BsQ0eciLPvp9YEf4g4AizMFEfgKnY6wVxAtlCwt+elNAL99h91kWQS+ZEck7CUFCyV5q356kWjCwJmMu+ziUgl8iQ5J2EuIFVLS1v30IvHG11sdN+lL4E0KFf9O2Ovp52Xuzvz0fLXEIzSBr97lCHt17bzM2bmfTuA76zeEvTPp26/YGT/dJvBb2M1HKLIFJuztM9dZjU756c0An3Uvnuh6rM6M0GHFhL1D8dus2kE/vejzNyEYofkIRbkeRNjL6eVlaof99CI9RSM0gZd3ScIu18rLlB746QS+pZ5F2FsSuqtqPPHTCXwLHYSwtyByV1V45qcTeMsdhbBbFrir4j310wuBV8u42qQnffh8hQi7qfd4+LvnfnqR4rL77PKfihbl99DkoiYTdpFMfiUKwE+vD/wBXIldyYuzfEgyVZOw+8WxsbUB+en1gefLsVMaEnYjPv4kCNBPJ/ANdj/C3qCYXRYVsJ9O4BvqWIS9ISG7LiZwPz1fXunlF5zSg7B3TWkD9ffETyfwNfsKYa8pYNfZe+an2wO+By/HEvauaa1Rf0/99KaAj7flpv+ELkENk3WalbB3Kn+9ynvrpxfJJgS2j49QEPZ6vHWWu/d+er7y8vvsevZUNGHvDNfqFdNPN2pH4DMkIuzGfuNWAvrpYnsQ+BmpCLu477iRkH56KTsQ+Am5CHupvtNtYvrplfQn8KlshL1S/2k/E/30WppvYAt7JFdMh/xyLGGv1YfayUw/vRGdRRdYxjXpQF+OJeyN9CO7hdBPb0zfMsAH93IsYW+sH9kpiH5647r2FnjC3nhfaq5A+unNaTlTUi+BJ+zW+lO9gumn19NPkPuoWsZ+QbrYhw9iSk/YJdbuIA399FZEF19AGQLwhL2VPlWuEvrp5fSqmbou8OJtvZrtrJ2dsNeWsNkC6Kc3q6ewtDLAe/tyLGEX9oY2ktFPb0Pl3DpEwPv8CAVh77R/TVdOP71jYwhvq/EVeMLecf/arp5+uiuGwIJawb2m1vgIPGE3WbWF3+mntyBymSqkt93kPzMl3scv06y6aQl7XQVr5qefXlNAW9kDBJ6w2+oswnLppwuF6iJZA8BLXp5t69MIe1tKZ9RDP71D8aVVj7BXreK4KXmBDy9a5TeV38TvhL0JFSuUQT+9gmjdZJFffuH4qzOEvYMORD+9A9HrVRkE8IS9XieolJt+eiXZus7kPfCEveUuRD+9ZcGbrc5r4Al7s52hsDT66S2Kba+qTZzBHnUYT5iqSO19DMClM2k7WbQj7CaLNfQ7/fSGhHSjGHHQjEvAE/aWOg/99JaEbq+a+sBrLKoV3NlWkwl7C0rTT29B5G6qKAP8mzBAPKWf/hMG7jTxeYS9CRULyqCfblng7ouXA9/xQ5KE3WJnoZ9uUVy3ivYCeMJusdPQT7corntFi1fYu3obnrBb6jT00y0J63axTgNP2C10HvrpFkT1p0hngSfsDXci+ukNC+pncU0Av0+t4P4mP5+wN6nm+FHArNtHG66FxXmgQF3gxaG5Ui0Iu1QpQTr66QKR+pSkxB56G49QEPaGOh/99IaEDK0Yh4An7A10LvrpDYgYchGOAE/YG+hk9NMbENGvIjYBrGc0eR0a8W+TfxvQ2JBcbbWdydaUnrDX7GT002sKaD97DOUsgJvQGbDqjNj1ETYkx1mb/gwbwBP2Glain15DvGazrmGEtTKjZ7PV2ymtaeAJe0U70U+vKJyNbMIbYG1UbbvMHOArvRxL2Ctai356ReFsZDuD3V1MtW18SlaZeoiHAOyd+U18+GY7H2GvYDFLfvr8WWcgWdyZaWK2v/kNrKvbcUovYQiFqMJneZtFLSPoftzUu3JBi2Sj96bCH50rO2txJwdWtYpHbbQtLrOHsB9Ty3izLT3bLjfpXxdgz1S9CnugsBvAYkZ7xCM8YW/bmpbr6yHsR9QybrUsq7H4XEgnL5tUycWT0yCP///shZTG+qpM6Ql7WVkdT9872EsErGT6w3kjaTuQNtmbjCM8YW9SbgfK6h3sI+wpcovSxa1JyzQxkjpg6cwmrBc9JEnYXTVbxXblrNxWLM39bEWLc/oQsi95dP+zZgOB5hdlZ9eIBME/hN19w5dqYc9gL1ycy73+qZSipRKbIY3DbKdDajdtLthOtp6wl7Kl+4l7BbtGpFawnGeVEi6N05A21esIe1NKOlJOz2AvvM1lTguNCBpH2xpJHekSO80g7K5ZpGZ7egX7Fi6NA4lyR/Yh9NRvhsW8mtI7n52wO2+icg3sEeyFK89Zh5RCj7Qz9RTCblLIs997BHthME3G4lxQkXZVuiVhr6Kaw3n0ECeAJLQy7D8Nk79+D4CFHREMi3lhizX+OsIemJX1rJ8a2PftfI7ZX5/+R8/wj0OoMk1+F2EPzMo9gb3YXz+AK7Fr5rSg4R+HwLpB5ucQ9sCs3BPYy/rrhf84BNYFcj+HsAdkaZ01ogX0fTufYriZJuN2FydOxnVtCsLetQUarN/jWPAyKmyqZVxWlEEP8b9Tx0bpr3OBrkwP8yFtT2A/qpaxP88e3F/P76kc2X2gWNhGvYTroDB/i44wvxfJDOfXM+Lhe7+/vm1Xwu5FD5c1ssTBD1mBLqYyXC6ph3hk6jYYjUW1gjtd/JS220TY21bcYn09gL14yy2+deaimQchAr95tkx3Iuxl1HI8bfDXWxtG6YwQ2Q21jO903GytNY+wtya1/YqCj4s3T+HvA7BvQmluuU2IQdjtM9haDXP+ams1t1JR+Sl8wC/FVFGcsFdRzdE8QUfPmafwszsRxv14R81orVmE3Zq07RacPl4x+1ppu42wWZt5Cj99yg1YU8u4yWaTfCubsPtmsZz2Bh5QY4xtZ9ScuSMTdrNGXqQIOqDGPIW/EQprE4biFD6j1xJ2L1A2NzLoPXbz2fXZVXhO4Qm7GRpfU+S84+3r50y2uzgWPiuQhgdfMu3OkT0EHOLXW7Pf8Pb/68yx8JzCC61M2IVCuZ5sboHK9QbL2mf0vTP+kWMgTY62hF3W6ZxOFfC2W/GNNFmXdfT8bviijkrYncZY1rhgt91ML7QuYQiFaEIlxsIXdBnCLuPJ6VR6CbdA4YjTjSzfOOM59Llrs3mctVBlwl6+EzqXQw9xB4BF5xpWp0Hmhbn5izp4nJWw1+lzPuQNcCVesjA3u7deuEXngx1tt5Eju22FWyg/uJV401PMWQtz3Fs39jTCbpTI7QRBXh9tOvTChblKnZKwV5LNnUwBxsQbQ10zFuYitYJld6ziZksIu5t2EbcquJh40wMQWTfocmFO1F8Iu0gmdxMFtjgn2W57CMDeCYtwYU7YPQm7UChXkwW1OGfabsuOmNurVnHcVfu41C7C7pI1SrYlsMU5Y/Rbxsk+Y56SkgadnLB7bN6Mq5P9/RrTqJ59lHVBreBefz+63ZYT9nb1brS2gM6wG0fojIXITWxht7odpxoVNeDCCLvHxg3m6mjTtVPjUX1j5mVWbreV7LuEvaRgriQP6FircYTOdFe43Va6KxL20pK5kSGYYBpDaGys9lwQDa+JrtQJCXsl2brPFMhJN47qLXYlwt6i2E1WFYS/Ljh/zlG9uV5D2JvTsrWSAvHXJSvws5dJAny/rXI/I+yVpesuYxD+umFfPcdXN4bTdmcV92sm7O7baK6FAeyvc1TvoN8R9g5Er1tlhh9bt8h28wsumsj4Ro7qNa1E2GsK2HZ2fQivxwDrbdfbYH1GaDP31emr1zYBYa8tYbsFeH+TrABajup2+hRht6OrtVI9P79uvoVmCVyBt9R7CLslYW0U6/mW2ybOYI86jCfytEm/L3ZRdk+kMU77bWgdYpmE3SOren2kVRIWO3+RJMAY+MZ6KGFvTEr7BekhZu9Kt19pMzWYt9qyTrYxBr4Z9dNSCHujctotzNsrqGRbbfcAWJhSkKN6ox2KsDcqp73CPI6aM/rcmddrCab99tQOs2TC7oldPY2aMy7KxfJn7DAYT8N5YjanmknYnTJHfmO8nMILRufMGYvgNJwnZnOqmYTdKXNkN8bTVfh1tYyrTfJmBNAYF/NMZfL3bAUIuwc9w8tVeEmkXNZWmyCfByZzsomE3UmznGuUp4E0R9Qybi2SNl2UiwNoLp1Ix9ddLPZHwm5R3CaK9nAKv4Et7DFd8ZwxWxEt5jWhaV/LIOyOW96766cE0/CcRTleDW25LxJ2ywLXKT6Z6p6PE0kZGj7Yyjx9H0fKzca/c1GuTkcR5vWhAwk/JbxkeoiPQOEWAAMPgJdO3+8AsDhlLcFsIDzrtv9FhL19zcU16iEeT06AqWRUdxt4AbA5F29wUU7cI+olJOz19LOWWy/h7VD4qwT0eArvMvCC4JnEExniEQB7JkRjpJy1HjRfMGFvUewyVekh/hwK1+2A7i7wsuCZrD11RsqV6RK10xL22hI2X4Ae4jsAfC6Zuk+O7O4Bv5ne4/5okQo503fjAZnmle13iYTdQfvrIW4H8OtA6qu7CrxwZM6cvhturXHQLN43ibA7aEI9xFNpZFlsn/HinHvAixbWMt5Vj7cRF9UK7nRQ+qCbRNgdM6+O8PPQuHsH7jHsrgEv22bLvvaa0/eO+hxh70j4vGp1hHXo5MLF8Qr8OJjGLeBH2KNWUeynZwfPMCS2w/5G2DsUf7ZqfQg/igEeSCGP99XdA144Bc98UlqY1yGTBNUUwu6QOXWEo9D4sQnIXQNe6qdfB4WjM9KK8jpkjuCaQtgdMak+gFfhfDw8NW0fT+NdAX4dW9hrPM0Wx/PvSmLfJ4+uMnjGgX5G2B0wQtwEHeEIgJ9LVt4n/XQ3gBftpyffMcRDAPZOySq4XdYRMwTdDMLugHl1hCsA/PNUWKxLwAthzdxmA4wn4RwwQS+aQNgdMLOO8HvQuGEuDt4F4KVx74fwJgxwbEZOUSitAyboRRMIe8dmTkZ1jX/KDZqZB356z93utpxoUS29Omtjzk8fn4Qr3KLrWP5eVU/YOza3jvBhaLyrMEquG+BFC3Kpnz57mi2OkltQK7i3Y3lZ/YQChL3D7qAP4NuxC5+cCJ7JD4ttF3hx8EvmfjrfaOuwV+VXTdg7NIuO8CFo/OxM8EzXwMtX3rPeUgfEM4IOpe9l1YS9I7Mno/r5OJ6xzVYcBy8d4bcvu9g+Fis9HiucfqfHVuMFuen9dJ5m66hHmasl7GaNrKTQEX4XwDtz9tW7AV4YzpqzIBf76fvUCu63IhgLra0AYa8tYfkCdIRvA/D3hn31toFfU8u4SfI1mddbC7foJOUzjR0FCLsdXQtL1RHWoPHDgn31toC/twTo8++oA6Itug6kZpVcje+uD+gIb4BOtqTGx1ZnL5Q0+eRl00/Wsx2KO13GYziNN5ti3pMttiXcApWE9U7+cUGuu+5UqmaO7KXkqp9YR/gTaPxgejV0t8ADMejXCkG/EQprMwqIt+jqK8cS6ipA2OsqWCK/jvAOaKxO7at3N8I/hi38pAj08Y0zsyvvgOASixLyMKllBQi7ZYG3i9cRXgzg4wBeMnU99Pjxh3ZHeOD/oPBTKsJjps/P2WJjhJxJOAd/J+wtGUVH+FVovC8zLLZd4GPQ3yYCfXy1VDyiTz7sEIPORxhb6jdNVkPYm1Qzpyx9G16J83eum8pfYZ+9qGIyMGZ29C+6cTZvkS8e0Uf4abWKz5o+O91LnwedobAm6Zz9nbC3YBod4aPQeIMoLNYW8DHoZ/F2CejJyvv8U03xf+bNsC30F1tVEHZbyqbl6ghvBJIY+HO3xJ67NTY7Dr554OOp+ztUhH+TfK4eImsvnVtsEvEcTkPYLRonWZTT+GsofFPpsNimgI9HdGAfQbdoaE+KJuwWDaWXcDMGuKFyWGwW8OMZwvwKfrYP/yzOYr9axb9LPjNnRBefgpPUwTTdKUDYLWmvo2QF+67MV1jrTullwMegX0/QLRnYw2IJuyWj6SE+BuDVla+bmn7bbfo66UmfP2uVfrzq/m6Cbsm4nhZL2C0YTkd4L4CFdFGu+mUU1YB/Fgo3qAj/Ifk0Tt0lKoWRhrA3bEd9EFdhF/5wLkou7xXWZqf0MejvqQk6o+Ma7hOuFEfYG7aEHuJuAN89N32vEgST9Q9E/qLd53EG71eH8WXJJ+WM6ARdIp6naQh7g4bTS3gfBti/s802C6st4IHP4zR+QX0Iz0o+h6BLVAovDWFvyKb6EF6H83D73DabbeDHoL+XoDdkyICLIewNGFd/AJfgEtwF4BWZl1HYA/5+tYwD0k/giC5VKsx0hL0Bu+ohboPCNaWm73Wn9MADKsJBSfPTQy3xDTMLM+njgJl9ahXHJeUwjd8KEPaa9tMRfgbAr1SavlcFHlhSER6QNL3g9Boj4yQCBpSGsNcwpo6wO7l5Bnhx5el7OeC/DoWhiuYeUMz8CoJew7gBZiXsFY2qI7wIGssAvqswSk7ir0uAV/gagPerCF+QNDn3hhmAI7pEwADTEPaKRtURPgDgh0RRchLgi15w0XgcCr+mogR4458eP598dOa1ljjfOs5gnzqMJ4yFMEFwChD2CibVS3gbBrixVJRcdeD/BsARMejZ76+NQd/CXskFkxUkYRYPFCDsJY2kD+I12IVDc6fZtk+iFYXFlgVe4y61gr+UNjHnRdU4+1FsYYGgS5UMMx1hL2FXHeFboHEYCpeU2mbLm6Ln/wPxdQAHVYR1SfPShbj4Tvd9GenFzzpJ6mIafxUg7ELbpQtyH4TClZW22eTAfwnjrbX/kjRNH8CV2JX459M3wMaZhQ81SuphGv8VIOxCG+ol/DIG+PHcyyjKTtGz0mt8As/ho+rDiEd241/BQtwmxk8v80VVo4r9SUDYBbZOX3K5LvPOd/mIrQpnBCN8RK3gbwXNSZLkvLsW/7SRRsU9Ki2L6fqhAGE32Fkfwo9ggF+aerKpyUU44CtQWFUR/lPS5QpCX+PsXHGXiNjTNIS9wPA6whXQOFT6bLp0Sj/Cp/EcjpSYtsdvrsULcfP+OR9v6CnC8s8m7DlapaDfCuBFpabvWc8iz666A89B48/UCh6UmkqP98/jwyyXzuUZ++fxM9D8owK5ChD2DGn0rbgYL8FKArrpQYfsN88HufvwsU+t8PsqwoakXxqm7Qx9lYjINIkChH2mI6Sg3wzgVbWm79n/CMSvuP6FivCcpP+l8e150/Zj2MI+BspIlGQawj4LeoSLAPwGgCsaCZrZBj6etivcrSL8q7TbpavtUc60na+oSoVkuh0FOLJPdAYd4TcT0GMfu6ktNeAzAP5APJqPn0nOi4bjZROEt7IChD2VTkd4984ptsnVdMmCW3b60ziLj6lVPCy1jl7CdVAJ6POLcACn7VIhmS5TAcI+DlB5F1TypHLxgw7SLTWNL0Dhj1WE/5b0u3QRLp6yL2am1+C0XSIk0xQq0HvY9RKuT0Cvsuo+f5DlNEZ4sFQk3PjseTya786wFKPhCHBjCvQadh3hndD4gVqr7ueAfxSncI+6A6cl1jGO5sARbCHiartETaaRKNBb2PUS9mOAq2uvugNbGOFP1SrEseipbx4HyGSN5jzEIum5TFNagd7Brm/GhbgMb01Ar7vqrnEMz+LjJUfzvJX22Hi8ZKJ0F2YGqQK9gj0B/WW4ESO8MhEoXo6rArzGSQxwn4rwRanQhfvm8SWQPJIqlZLpKirQG9hT0H8xebVllEQOxm+elwM+nrIDn1AR/kGqtyEKLi5mDVtYpG8uVZTpqirQC9iTxbCLcT00XpGM5PGIngd83lVRGp/BAPerKAHe+CdYgItX2hf4GotRSiZoSIHgYdcRLscI74HCxVOHU6TAj3ACA/yd9Lx5bBfDlD2+LirC8zjC0byhXsxiRAoEDXtyTHWUPKF8UWb4axHwI5zCAA+pKAl3Ff2l10Tl7ZnHZRzDCItlVu5FFTMRFRAoECzsOsJrAbw1ma5vQ50V7z4LvMLzUPgUgE+Jp+zjSx9jyPfmaB4vwC3yzLmgRzKJNQWChF1HeCNG6R76Nswy4B/DAMdVhE2J4oaz5ttFMDhGIibTWFcgKNh1hAsAvAUjXDW1CGcCXuFJnMaDUh86gfxCLEIlsexZh1bGU/YzWOBTS9b7MCsQKhAM7PqDeBkuxLUY4eU7oE9O0bOAV3gaGp9Uy3hSopcQcq6yS8RkmtYVCAL25KGE8/ATGODCZOd80k/PAh54Gmfxj+ownpIqblxhHwfG0C+XCsp0rSvgPew6wjUY4XVTo3ke8AN8OV14e1qqdHrRY3z8NCuOPS4mhvwIt9KkijJdVwp4C3vin49wLQZJ6Ov8aD7534CTeAGfVocT2I1/wul6XA4X34xqMoErCngJu74N34pd6bR9e8qePZo/gwH+RUU4KRG8BORrOIOIi28SVZnGFQW8g10fSs6fv3ZuES72zc8B/wy+gYfV7+AZidDp44jxyvpCwep6XBQhlwjKNE4q4A3sOkq2uK4B8M07ce2zK+waX8R5eERF+JpE7TTiLQY8/l/RHyGXCMo0TivgBez6IL4HA3xfsto+udIej+QDvICz+BLOw+fEkI9fV4kBz4t42zYaIXe6+7JxZRRwGvbkTXQkF0FePrcIF9/FPsBncRJPqT/CC6aPnvDHY8jzVtbjYsar62exRp/cpCp/90kBZ2HXB3EVduE1QLLqPo5vH1/rfBJncEK8sj6+0FEyVd+Axhq30HzqvmxrGQWcgz15fumluHoqEg44A40ncR4elzy2kI7iC2k4a9EoHmu1Ho/kPKRSptswrY8KOAV76pu/emelXeN/MMBT4nDWQ4ifNN5eVTfZYw0jrPHyCJNM/D0UBZyAXf82LsP5+H6oxEc/gzjS7RROSC9y3DZGegXUeoFx6I+H0nP5HaUV6BR2HT+keBbfC4XLMcBXAZxUEb5S+ismMughTmQswB2L/XFO1esoy7y+K9AJ7DrCruQBxbN4Oc7iaVyAr6oIZ5oQMz2wEt/JHp9Jj7fOjnBVvQllWYbvCnQDexzuegFOSW+CKSNyuji3V63g/jL5mJYKhK5AJ7CHLiq/jwq4qABhd9EqbBMVsKAAYbcgKoukAi4qQNhdtArbRAUsKEDYLYjKIqmAiwr8PwY3ubQHK5rSAAAAAElFTkSuQmCC;rotation=-150;" vertex="1" parent="1">
          <mxGeometry x="200" y="210" width="91" height="92.45" as="geometry" />
        </mxCell>
        <mxCell id="SpDVIERAmwwqhRBwcDv1-18" value="" style="shape=image;verticalLabelPosition=bottom;labelBackgroundColor=#ffffff;verticalAlign=top;aspect=fixed;imageAspect=0;image=data:image/png,iVBORw0KGgoAAAANSUhEUgAAAPsAAAD/CAYAAAA346CwAAAACXBIWXMAAAsSAAALEgHS3X78AAAc40lEQVR4Xu2dfaxmR13Hv/N0+0YRWpEKWuxqFQMR2UbUGhUWixGM0F0qVIzSWzWC0aa3hkTp7t7n3HuzxhKw25pQFWNv/cvXdNsmmGC0u4YoqKW3RYVQcG9f2BowetdC95buPmPOec69+7ycc+Z3XuacmTnfm/AHfebtfH/z2ZnfzG9mFPhHBahALxRQvfhKfmTnCugl3ILnsaZux6nOG9PTBhD2nhq+zc/WQ9wDYAHAOrawl8C3qf65ugh7N7r3ptYJ0Le/mcB3ZH3C3pHwPlebADzCEbWKR4u+Q/8WXoqLcAzAnpl0BL6DDkDYOxDd5yoT31vhCIBNjLC3BvBH1TL2+6yFb20n7L5ZrMP26kN4PQZYn2hCGeA3AFw60/w1tYybOvykXlVN2Htl7uofm07JY9B3z5QiA378D0U8pSfw1c1QKydhryVffzLrIe4DsC/niwm8B12BsHtgpK6bOOGnFzVFtOiWugIc4TswKmHvQHSfqszw0wm8TwacaCth99RwbTS7wE8n8G0YoOE6CHvDgoZUnMFPtwe8RqRWsBySli58C2F3wQoOtkHop9sEfkGt4F4HpfG2SYTdW9PZa3hJP72oIaLAGb2EG6GwNleQBoFv0MyEvUExQyiqop9e9OmiwBkCb7/3EHb7GntVQw0/ncA7bmnC7riB2mxeA346gW/TYCXrIuwlBQs1eYN+OoF3tJMQdkcN02azLPjp+c3XWFQruNP0ffThTQqV/52wl9csuByW/PQi4EWr7DnAi+LwgzNSAx9E2BsQ0eciLPvp9YEf4g4AizMFEfgKnY6wVxAtlCwt+elNAL99h91kWQS+ZEck7CUFCyV5q356kWjCwJmMu+ziUgl8iQ5J2EuIFVLS1v30IvHG11sdN+lL4E0KFf9O2Ovp52Xuzvz0fLXEIzSBr97lCHt17bzM2bmfTuA76zeEvTPp26/YGT/dJvBb2M1HKLIFJuztM9dZjU756c0An3Uvnuh6rM6M0GHFhL1D8dus2kE/vejzNyEYofkIRbkeRNjL6eVlaof99CI9RSM0gZd3ScIu18rLlB746QS+pZ5F2FsSuqtqPPHTCXwLHYSwtyByV1V45qcTeMsdhbBbFrir4j310wuBV8u42qQnffh8hQi7qfd4+LvnfnqR4rL77PKfihbl99DkoiYTdpFMfiUKwE+vD/wBXIldyYuzfEgyVZOw+8WxsbUB+en1gefLsVMaEnYjPv4kCNBPJ/ANdj/C3qCYXRYVsJ9O4BvqWIS9ISG7LiZwPz1fXunlF5zSg7B3TWkD9ffETyfwNfsKYa8pYNfZe+an2wO+By/HEvauaa1Rf0/99KaAj7flpv+ELkENk3WalbB3Kn+9ynvrpxfJJgS2j49QEPZ6vHWWu/d+er7y8vvsevZUNGHvDNfqFdNPN2pH4DMkIuzGfuNWAvrpYnsQ+BmpCLu477iRkH56KTsQ+Am5CHupvtNtYvrplfQn8KlshL1S/2k/E/30WppvYAt7JFdMh/xyLGGv1YfayUw/vRGdRRdYxjXpQF+OJeyN9CO7hdBPb0zfMsAH93IsYW+sH9kpiH5647r2FnjC3nhfaq5A+unNaTlTUi+BJ+zW+lO9gumn19NPkPuoWsZ+QbrYhw9iSk/YJdbuIA399FZEF19AGQLwhL2VPlWuEvrp5fSqmbou8OJtvZrtrJ2dsNeWsNkC6Kc3q6ewtDLAe/tyLGEX9oY2ktFPb0Pl3DpEwPv8CAVh77R/TVdOP71jYwhvq/EVeMLecf/arp5+uiuGwIJawb2m1vgIPGE3WbWF3+mntyBymSqkt93kPzMl3scv06y6aQl7XQVr5qefXlNAW9kDBJ6w2+oswnLppwuF6iJZA8BLXp5t69MIe1tKZ9RDP71D8aVVj7BXreK4KXmBDy9a5TeV38TvhL0JFSuUQT+9gmjdZJFffuH4qzOEvYMORD+9A9HrVRkE8IS9XieolJt+eiXZus7kPfCEveUuRD+9ZcGbrc5r4Al7s52hsDT66S2Kba+qTZzBHnUYT5iqSO19DMClM2k7WbQj7CaLNfQ7/fSGhHSjGHHQjEvAE/aWOg/99JaEbq+a+sBrLKoV3NlWkwl7C0rTT29B5G6qKAP8mzBAPKWf/hMG7jTxeYS9CRULyqCfblng7ouXA9/xQ5KE3WJnoZ9uUVy3ivYCeMJusdPQT7corntFi1fYu3obnrBb6jT00y0J63axTgNP2C10HvrpFkT1p0hngSfsDXci+ukNC+pncU0Av0+t4P4mP5+wN6nm+FHArNtHG66FxXmgQF3gxaG5Ui0Iu1QpQTr66QKR+pSkxB56G49QEPaGOh/99IaEDK0Yh4An7A10LvrpDYgYchGOAE/YG+hk9NMbENGvIjYBrGc0eR0a8W+TfxvQ2JBcbbWdydaUnrDX7GT002sKaD97DOUsgJvQGbDqjNj1ETYkx1mb/gwbwBP2Glain15DvGazrmGEtTKjZ7PV2ymtaeAJe0U70U+vKJyNbMIbYG1UbbvMHOArvRxL2Ctai356ReFsZDuD3V1MtW18SlaZeoiHAOyd+U18+GY7H2GvYDFLfvr8WWcgWdyZaWK2v/kNrKvbcUovYQiFqMJneZtFLSPoftzUu3JBi2Sj96bCH50rO2txJwdWtYpHbbQtLrOHsB9Ty3izLT3bLjfpXxdgz1S9CnugsBvAYkZ7xCM8YW/bmpbr6yHsR9QybrUsq7H4XEgnL5tUycWT0yCP///shZTG+qpM6Ql7WVkdT9872EsErGT6w3kjaTuQNtmbjCM8YW9SbgfK6h3sI+wpcovSxa1JyzQxkjpg6cwmrBc9JEnYXTVbxXblrNxWLM39bEWLc/oQsi95dP+zZgOB5hdlZ9eIBME/hN19w5dqYc9gL1ycy73+qZSipRKbIY3DbKdDajdtLthOtp6wl7Kl+4l7BbtGpFawnGeVEi6N05A21esIe1NKOlJOz2AvvM1lTguNCBpH2xpJHekSO80g7K5ZpGZ7egX7Fi6NA4lyR/Yh9NRvhsW8mtI7n52wO2+icg3sEeyFK89Zh5RCj7Qz9RTCblLIs997BHthME3G4lxQkXZVuiVhr6Kaw3n0ECeAJLQy7D8Nk79+D4CFHREMi3lhizX+OsIemJX1rJ8a2PftfI7ZX5/+R8/wj0OoMk1+F2EPzMo9gb3YXz+AK7Fr5rSg4R+HwLpB5ucQ9sCs3BPYy/rrhf84BNYFcj+HsAdkaZ01ogX0fTufYriZJuN2FydOxnVtCsLetQUarN/jWPAyKmyqZVxWlEEP8b9Tx0bpr3OBrkwP8yFtT2A/qpaxP88e3F/P76kc2X2gWNhGvYTroDB/i44wvxfJDOfXM+Lhe7+/vm1Xwu5FD5c1ssTBD1mBLqYyXC6ph3hk6jYYjUW1gjtd/JS220TY21bcYn09gL14yy2+deaimQchAr95tkx3Iuxl1HI8bfDXWxtG6YwQ2Q21jO903GytNY+wtya1/YqCj4s3T+HvA7BvQmluuU2IQdjtM9haDXP+ams1t1JR+Sl8wC/FVFGcsFdRzdE8QUfPmafwszsRxv14R81orVmE3Zq07RacPl4x+1ppu42wWZt5Cj99yg1YU8u4yWaTfCubsPtmsZz2Bh5QY4xtZ9ScuSMTdrNGXqQIOqDGPIW/EQprE4biFD6j1xJ2L1A2NzLoPXbz2fXZVXhO4Qm7GRpfU+S84+3r50y2uzgWPiuQhgdfMu3OkT0EHOLXW7Pf8Pb/68yx8JzCC61M2IVCuZ5sboHK9QbL2mf0vTP+kWMgTY62hF3W6ZxOFfC2W/GNNFmXdfT8bviijkrYncZY1rhgt91ML7QuYQiFaEIlxsIXdBnCLuPJ6VR6CbdA4YjTjSzfOOM59Llrs3mctVBlwl6+EzqXQw9xB4BF5xpWp0Hmhbn5izp4nJWw1+lzPuQNcCVesjA3u7deuEXngx1tt5Eju22FWyg/uJV401PMWQtz3Fs39jTCbpTI7QRBXh9tOvTChblKnZKwV5LNnUwBxsQbQ10zFuYitYJld6ziZksIu5t2EbcquJh40wMQWTfocmFO1F8Iu0gmdxMFtjgn2W57CMDeCYtwYU7YPQm7UChXkwW1OGfabsuOmNurVnHcVfu41C7C7pI1SrYlsMU5Y/Rbxsk+Y56SkgadnLB7bN6Mq5P9/RrTqJ59lHVBreBefz+63ZYT9nb1brS2gM6wG0fojIXITWxht7odpxoVNeDCCLvHxg3m6mjTtVPjUX1j5mVWbreV7LuEvaRgriQP6FircYTOdFe43Va6KxL20pK5kSGYYBpDaGys9lwQDa+JrtQJCXsl2brPFMhJN47qLXYlwt6i2E1WFYS/Ljh/zlG9uV5D2JvTsrWSAvHXJSvws5dJAny/rXI/I+yVpesuYxD+umFfPcdXN4bTdmcV92sm7O7baK6FAeyvc1TvoN8R9g5Er1tlhh9bt8h28wsumsj4Ro7qNa1E2GsK2HZ2fQivxwDrbdfbYH1GaDP31emr1zYBYa8tYbsFeH+TrABajup2+hRht6OrtVI9P79uvoVmCVyBt9R7CLslYW0U6/mW2ybOYI86jCfytEm/L3ZRdk+kMU77bWgdYpmE3SOren2kVRIWO3+RJMAY+MZ6KGFvTEr7BekhZu9Kt19pMzWYt9qyTrYxBr4Z9dNSCHujctotzNsrqGRbbfcAWJhSkKN6ox2KsDcqp73CPI6aM/rcmddrCab99tQOs2TC7oldPY2aMy7KxfJn7DAYT8N5YjanmknYnTJHfmO8nMILRufMGYvgNJwnZnOqmYTdKXNkN8bTVfh1tYyrTfJmBNAYF/NMZfL3bAUIuwc9w8tVeEmkXNZWmyCfByZzsomE3UmznGuUp4E0R9Qybi2SNl2UiwNoLp1Ix9ddLPZHwm5R3CaK9nAKv4Et7DFd8ZwxWxEt5jWhaV/LIOyOW96766cE0/CcRTleDW25LxJ2ywLXKT6Z6p6PE0kZGj7Yyjx9H0fKzca/c1GuTkcR5vWhAwk/JbxkeoiPQOEWAAMPgJdO3+8AsDhlLcFsIDzrtv9FhL19zcU16iEeT06AqWRUdxt4AbA5F29wUU7cI+olJOz19LOWWy/h7VD4qwT0eArvMvCC4JnEExniEQB7JkRjpJy1HjRfMGFvUewyVekh/hwK1+2A7i7wsuCZrD11RsqV6RK10xL22hI2X4Ae4jsAfC6Zuk+O7O4Bv5ne4/5okQo503fjAZnmle13iYTdQfvrIW4H8OtA6qu7CrxwZM6cvhturXHQLN43ibA7aEI9xFNpZFlsn/HinHvAixbWMt5Vj7cRF9UK7nRQ+qCbRNgdM6+O8PPQuHsH7jHsrgEv22bLvvaa0/eO+hxh70j4vGp1hHXo5MLF8Qr8OJjGLeBH2KNWUeynZwfPMCS2w/5G2DsUf7ZqfQg/igEeSCGP99XdA144Bc98UlqY1yGTBNUUwu6QOXWEo9D4sQnIXQNe6qdfB4WjM9KK8jpkjuCaQtgdMak+gFfhfDw8NW0fT+NdAX4dW9hrPM0Wx/PvSmLfJ4+uMnjGgX5G2B0wQtwEHeEIgJ9LVt4n/XQ3gBftpyffMcRDAPZOySq4XdYRMwTdDMLugHl1hCsA/PNUWKxLwAthzdxmA4wn4RwwQS+aQNgdMLOO8HvQuGEuDt4F4KVx74fwJgxwbEZOUSitAyboRRMIe8dmTkZ1jX/KDZqZB356z93utpxoUS29Omtjzk8fn4Qr3KLrWP5eVU/YOza3jvBhaLyrMEquG+BFC3Kpnz57mi2OkltQK7i3Y3lZ/YQChL3D7qAP4NuxC5+cCJ7JD4ttF3hx8EvmfjrfaOuwV+VXTdg7NIuO8CFo/OxM8EzXwMtX3rPeUgfEM4IOpe9l1YS9I7Mno/r5OJ6xzVYcBy8d4bcvu9g+Fis9HiucfqfHVuMFuen9dJ5m66hHmasl7GaNrKTQEX4XwDtz9tW7AV4YzpqzIBf76fvUCu63IhgLra0AYa8tYfkCdIRvA/D3hn31toFfU8u4SfI1mddbC7foJOUzjR0FCLsdXQtL1RHWoPHDgn31toC/twTo8++oA6Itug6kZpVcje+uD+gIb4BOtqTGx1ZnL5Q0+eRl00/Wsx2KO13GYziNN5ti3pMttiXcApWE9U7+cUGuu+5UqmaO7KXkqp9YR/gTaPxgejV0t8ADMejXCkG/EQprMwqIt+jqK8cS6ipA2OsqWCK/jvAOaKxO7at3N8I/hi38pAj08Y0zsyvvgOASixLyMKllBQi7ZYG3i9cRXgzg4wBeMnU99Pjxh3ZHeOD/oPBTKsJjps/P2WJjhJxJOAd/J+wtGUVH+FVovC8zLLZd4GPQ3yYCfXy1VDyiTz7sEIPORxhb6jdNVkPYm1Qzpyx9G16J83eum8pfYZ+9qGIyMGZ29C+6cTZvkS8e0Uf4abWKz5o+O91LnwedobAm6Zz9nbC3YBod4aPQeIMoLNYW8DHoZ/F2CejJyvv8U03xf+bNsC30F1tVEHZbyqbl6ghvBJIY+HO3xJ67NTY7Dr554OOp+ztUhH+TfK4eImsvnVtsEvEcTkPYLRonWZTT+GsofFPpsNimgI9HdGAfQbdoaE+KJuwWDaWXcDMGuKFyWGwW8OMZwvwKfrYP/yzOYr9axb9LPjNnRBefgpPUwTTdKUDYLWmvo2QF+67MV1jrTullwMegX0/QLRnYw2IJuyWj6SE+BuDVla+bmn7bbfo66UmfP2uVfrzq/m6Cbsm4nhZL2C0YTkd4L4CFdFGu+mUU1YB/Fgo3qAj/Ifk0Tt0lKoWRhrA3bEd9EFdhF/5wLkou7xXWZqf0MejvqQk6o+Ma7hOuFEfYG7aEHuJuAN89N32vEgST9Q9E/qLd53EG71eH8WXJJ+WM6ARdIp6naQh7g4bTS3gfBti/s802C6st4IHP4zR+QX0Iz0o+h6BLVAovDWFvyKb6EF6H83D73DabbeDHoL+XoDdkyICLIewNGFd/AJfgEtwF4BWZl1HYA/5+tYwD0k/giC5VKsx0hL0Bu+ohboPCNaWm73Wn9MADKsJBSfPTQy3xDTMLM+njgJl9ahXHJeUwjd8KEPaa9tMRfgbAr1SavlcFHlhSER6QNL3g9Boj4yQCBpSGsNcwpo6wO7l5Bnhx5el7OeC/DoWhiuYeUMz8CoJew7gBZiXsFY2qI7wIGssAvqswSk7ir0uAV/gagPerCF+QNDn3hhmAI7pEwADTEPaKRtURPgDgh0RRchLgi15w0XgcCr+mogR4458eP598dOa1ljjfOs5gnzqMJ4yFMEFwChD2CibVS3gbBrixVJRcdeD/BsARMejZ76+NQd/CXskFkxUkYRYPFCDsJY2kD+I12IVDc6fZtk+iFYXFlgVe4y61gr+UNjHnRdU4+1FsYYGgS5UMMx1hL2FXHeFboHEYCpeU2mbLm6Ln/wPxdQAHVYR1SfPShbj4Tvd9GenFzzpJ6mIafxUg7ELbpQtyH4TClZW22eTAfwnjrbX/kjRNH8CV2JX459M3wMaZhQ81SuphGv8VIOxCG+ol/DIG+PHcyyjKTtGz0mt8As/ho+rDiEd241/BQtwmxk8v80VVo4r9SUDYBbZOX3K5LvPOd/mIrQpnBCN8RK3gbwXNSZLkvLsW/7SRRsU9Ki2L6fqhAGE32Fkfwo9ggF+aerKpyUU44CtQWFUR/lPS5QpCX+PsXHGXiNjTNIS9wPA6whXQOFT6bLp0Sj/Cp/EcjpSYtsdvrsULcfP+OR9v6CnC8s8m7DlapaDfCuBFpabvWc8iz666A89B48/UCh6UmkqP98/jwyyXzuUZ++fxM9D8owK5ChD2DGn0rbgYL8FKArrpQYfsN88HufvwsU+t8PsqwoakXxqm7Qx9lYjINIkChH2mI6Sg3wzgVbWm79n/CMSvuP6FivCcpP+l8e150/Zj2MI+BspIlGQawj4LeoSLAPwGgCsaCZrZBj6etivcrSL8q7TbpavtUc60na+oSoVkuh0FOLJPdAYd4TcT0GMfu6ktNeAzAP5APJqPn0nOi4bjZROEt7IChD2VTkd4984ptsnVdMmCW3b60ziLj6lVPCy1jl7CdVAJ6POLcACn7VIhmS5TAcI+DlB5F1TypHLxgw7SLTWNL0Dhj1WE/5b0u3QRLp6yL2am1+C0XSIk0xQq0HvY9RKuT0Cvsuo+f5DlNEZ4sFQk3PjseTya786wFKPhCHBjCvQadh3hndD4gVqr7ueAfxSncI+6A6cl1jGO5sARbCHiartETaaRKNBb2PUS9mOAq2uvugNbGOFP1SrEseipbx4HyGSN5jzEIum5TFNagd7Brm/GhbgMb01Ar7vqrnEMz+LjJUfzvJX22Hi8ZKJ0F2YGqQK9gj0B/WW4ESO8MhEoXo6rArzGSQxwn4rwRanQhfvm8SWQPJIqlZLpKirQG9hT0H8xebVllEQOxm+elwM+nrIDn1AR/kGqtyEKLi5mDVtYpG8uVZTpqirQC9iTxbCLcT00XpGM5PGIngd83lVRGp/BAPerKAHe+CdYgItX2hf4GotRSiZoSIHgYdcRLscI74HCxVOHU6TAj3ACA/yd9Lx5bBfDlD2+LirC8zjC0byhXsxiRAoEDXtyTHWUPKF8UWb4axHwI5zCAA+pKAl3Ff2l10Tl7ZnHZRzDCItlVu5FFTMRFRAoECzsOsJrAbw1ma5vQ50V7z4LvMLzUPgUgE+Jp+zjSx9jyPfmaB4vwC3yzLmgRzKJNQWChF1HeCNG6R76Nswy4B/DAMdVhE2J4oaz5ttFMDhGIibTWFcgKNh1hAsAvAUjXDW1CGcCXuFJnMaDUh86gfxCLEIlsexZh1bGU/YzWOBTS9b7MCsQKhAM7PqDeBkuxLUY4eU7oE9O0bOAV3gaGp9Uy3hSopcQcq6yS8RkmtYVCAL25KGE8/ATGODCZOd80k/PAh54Gmfxj+ownpIqblxhHwfG0C+XCsp0rSvgPew6wjUY4XVTo3ke8AN8OV14e1qqdHrRY3z8NCuOPS4mhvwIt9KkijJdVwp4C3vin49wLQZJ6Ov8aD7534CTeAGfVocT2I1/wul6XA4X34xqMoErCngJu74N34pd6bR9e8qePZo/gwH+RUU4KRG8BORrOIOIi28SVZnGFQW8g10fSs6fv3ZuES72zc8B/wy+gYfV7+AZidDp44jxyvpCwep6XBQhlwjKNE4q4A3sOkq2uK4B8M07ce2zK+waX8R5eERF+JpE7TTiLQY8/l/RHyGXCMo0TivgBez6IL4HA3xfsto+udIej+QDvICz+BLOw+fEkI9fV4kBz4t42zYaIXe6+7JxZRRwGvbkTXQkF0FePrcIF9/FPsBncRJPqT/CC6aPnvDHY8jzVtbjYsar62exRp/cpCp/90kBZ2HXB3EVduE1QLLqPo5vH1/rfBJncEK8sj6+0FEyVd+Axhq30HzqvmxrGQWcgz15fumluHoqEg44A40ncR4elzy2kI7iC2k4a9EoHmu1Ho/kPKRSptswrY8KOAV76pu/emelXeN/MMBT4nDWQ4ifNN5eVTfZYw0jrPHyCJNM/D0UBZyAXf82LsP5+H6oxEc/gzjS7RROSC9y3DZGegXUeoFx6I+H0nP5HaUV6BR2HT+keBbfC4XLMcBXAZxUEb5S+ismMughTmQswB2L/XFO1esoy7y+K9AJ7DrCruQBxbN4Oc7iaVyAr6oIZ5oQMz2wEt/JHp9Jj7fOjnBVvQllWYbvCnQDexzuegFOSW+CKSNyuji3V63g/jL5mJYKhK5AJ7CHLiq/jwq4qABhd9EqbBMVsKAAYbcgKoukAi4qQNhdtArbRAUsKEDYLYjKIqmAiwr8PwY3ubQHK5rSAAAAAElFTkSuQmCC;rotation=60;" vertex="1" parent="1">
          <mxGeometry x="340" y="390" width="91" height="92.45" as="geometry" />
        </mxCell>
        <mxCell id="SpDVIERAmwwqhRBwcDv1-19" value="" style="shape=image;verticalLabelPosition=bottom;labelBackgroundColor=#ffffff;verticalAlign=top;aspect=fixed;imageAspect=0;image=data:image/png,iVBORw0KGgoAAAANSUhEUgAAAPsAAAD/CAYAAAA346CwAAAACXBIWXMAAAsSAAALEgHS3X78AAAc40lEQVR4Xu2dfaxmR13Hv/N0+0YRWpEKWuxqFQMR2UbUGhUWixGM0F0qVIzSWzWC0aa3hkTp7t7n3HuzxhKw25pQFWNv/cvXdNsmmGC0u4YoqKW3RYVQcG9f2BowetdC95buPmPOec69+7ycc+Z3XuacmTnfm/AHfebtfH/z2ZnfzG9mFPhHBahALxRQvfhKfmTnCugl3ILnsaZux6nOG9PTBhD2nhq+zc/WQ9wDYAHAOrawl8C3qf65ugh7N7r3ptYJ0Le/mcB3ZH3C3pHwPlebADzCEbWKR4u+Q/8WXoqLcAzAnpl0BL6DDkDYOxDd5yoT31vhCIBNjLC3BvBH1TL2+6yFb20n7L5ZrMP26kN4PQZYn2hCGeA3AFw60/w1tYybOvykXlVN2Htl7uofm07JY9B3z5QiA378D0U8pSfw1c1QKydhryVffzLrIe4DsC/niwm8B12BsHtgpK6bOOGnFzVFtOiWugIc4TswKmHvQHSfqszw0wm8TwacaCth99RwbTS7wE8n8G0YoOE6CHvDgoZUnMFPtwe8RqRWsBySli58C2F3wQoOtkHop9sEfkGt4F4HpfG2SYTdW9PZa3hJP72oIaLAGb2EG6GwNleQBoFv0MyEvUExQyiqop9e9OmiwBkCb7/3EHb7GntVQw0/ncA7bmnC7riB2mxeA346gW/TYCXrIuwlBQs1eYN+OoF3tJMQdkcN02azLPjp+c3XWFQruNP0ffThTQqV/52wl9csuByW/PQi4EWr7DnAi+LwgzNSAx9E2BsQ0eciLPvp9YEf4g4AizMFEfgKnY6wVxAtlCwt+elNAL99h91kWQS+ZEck7CUFCyV5q356kWjCwJmMu+ziUgl8iQ5J2EuIFVLS1v30IvHG11sdN+lL4E0KFf9O2Ovp52Xuzvz0fLXEIzSBr97lCHt17bzM2bmfTuA76zeEvTPp26/YGT/dJvBb2M1HKLIFJuztM9dZjU756c0An3Uvnuh6rM6M0GHFhL1D8dus2kE/vejzNyEYofkIRbkeRNjL6eVlaof99CI9RSM0gZd3ScIu18rLlB746QS+pZ5F2FsSuqtqPPHTCXwLHYSwtyByV1V45qcTeMsdhbBbFrir4j310wuBV8u42qQnffh8hQi7qfd4+LvnfnqR4rL77PKfihbl99DkoiYTdpFMfiUKwE+vD/wBXIldyYuzfEgyVZOw+8WxsbUB+en1gefLsVMaEnYjPv4kCNBPJ/ANdj/C3qCYXRYVsJ9O4BvqWIS9ISG7LiZwPz1fXunlF5zSg7B3TWkD9ffETyfwNfsKYa8pYNfZe+an2wO+By/HEvauaa1Rf0/99KaAj7flpv+ELkENk3WalbB3Kn+9ynvrpxfJJgS2j49QEPZ6vHWWu/d+er7y8vvsevZUNGHvDNfqFdNPN2pH4DMkIuzGfuNWAvrpYnsQ+BmpCLu477iRkH56KTsQ+Am5CHupvtNtYvrplfQn8KlshL1S/2k/E/30WppvYAt7JFdMh/xyLGGv1YfayUw/vRGdRRdYxjXpQF+OJeyN9CO7hdBPb0zfMsAH93IsYW+sH9kpiH5647r2FnjC3nhfaq5A+unNaTlTUi+BJ+zW+lO9gumn19NPkPuoWsZ+QbrYhw9iSk/YJdbuIA399FZEF19AGQLwhL2VPlWuEvrp5fSqmbou8OJtvZrtrJ2dsNeWsNkC6Kc3q6ewtDLAe/tyLGEX9oY2ktFPb0Pl3DpEwPv8CAVh77R/TVdOP71jYwhvq/EVeMLecf/arp5+uiuGwIJawb2m1vgIPGE3WbWF3+mntyBymSqkt93kPzMl3scv06y6aQl7XQVr5qefXlNAW9kDBJ6w2+oswnLppwuF6iJZA8BLXp5t69MIe1tKZ9RDP71D8aVVj7BXreK4KXmBDy9a5TeV38TvhL0JFSuUQT+9gmjdZJFffuH4qzOEvYMORD+9A9HrVRkE8IS9XieolJt+eiXZus7kPfCEveUuRD+9ZcGbrc5r4Al7s52hsDT66S2Kba+qTZzBHnUYT5iqSO19DMClM2k7WbQj7CaLNfQ7/fSGhHSjGHHQjEvAE/aWOg/99JaEbq+a+sBrLKoV3NlWkwl7C0rTT29B5G6qKAP8mzBAPKWf/hMG7jTxeYS9CRULyqCfblng7ouXA9/xQ5KE3WJnoZ9uUVy3ivYCeMJusdPQT7corntFi1fYu3obnrBb6jT00y0J63axTgNP2C10HvrpFkT1p0hngSfsDXci+ukNC+pncU0Av0+t4P4mP5+wN6nm+FHArNtHG66FxXmgQF3gxaG5Ui0Iu1QpQTr66QKR+pSkxB56G49QEPaGOh/99IaEDK0Yh4An7A10LvrpDYgYchGOAE/YG+hk9NMbENGvIjYBrGc0eR0a8W+TfxvQ2JBcbbWdydaUnrDX7GT002sKaD97DOUsgJvQGbDqjNj1ETYkx1mb/gwbwBP2Glain15DvGazrmGEtTKjZ7PV2ymtaeAJe0U70U+vKJyNbMIbYG1UbbvMHOArvRxL2Ctai356ReFsZDuD3V1MtW18SlaZeoiHAOyd+U18+GY7H2GvYDFLfvr8WWcgWdyZaWK2v/kNrKvbcUovYQiFqMJneZtFLSPoftzUu3JBi2Sj96bCH50rO2txJwdWtYpHbbQtLrOHsB9Ty3izLT3bLjfpXxdgz1S9CnugsBvAYkZ7xCM8YW/bmpbr6yHsR9QybrUsq7H4XEgnL5tUycWT0yCP///shZTG+qpM6Ql7WVkdT9872EsErGT6w3kjaTuQNtmbjCM8YW9SbgfK6h3sI+wpcovSxa1JyzQxkjpg6cwmrBc9JEnYXTVbxXblrNxWLM39bEWLc/oQsi95dP+zZgOB5hdlZ9eIBME/hN19w5dqYc9gL1ycy73+qZSipRKbIY3DbKdDajdtLthOtp6wl7Kl+4l7BbtGpFawnGeVEi6N05A21esIe1NKOlJOz2AvvM1lTguNCBpH2xpJHekSO80g7K5ZpGZ7egX7Fi6NA4lyR/Yh9NRvhsW8mtI7n52wO2+icg3sEeyFK89Zh5RCj7Qz9RTCblLIs997BHthME3G4lxQkXZVuiVhr6Kaw3n0ECeAJLQy7D8Nk79+D4CFHREMi3lhizX+OsIemJX1rJ8a2PftfI7ZX5/+R8/wj0OoMk1+F2EPzMo9gb3YXz+AK7Fr5rSg4R+HwLpB5ucQ9sCs3BPYy/rrhf84BNYFcj+HsAdkaZ01ogX0fTufYriZJuN2FydOxnVtCsLetQUarN/jWPAyKmyqZVxWlEEP8b9Tx0bpr3OBrkwP8yFtT2A/qpaxP88e3F/P76kc2X2gWNhGvYTroDB/i44wvxfJDOfXM+Lhe7+/vm1Xwu5FD5c1ssTBD1mBLqYyXC6ph3hk6jYYjUW1gjtd/JS220TY21bcYn09gL14yy2+deaimQchAr95tkx3Iuxl1HI8bfDXWxtG6YwQ2Q21jO903GytNY+wtya1/YqCj4s3T+HvA7BvQmluuU2IQdjtM9haDXP+ams1t1JR+Sl8wC/FVFGcsFdRzdE8QUfPmafwszsRxv14R81orVmE3Zq07RacPl4x+1ppu42wWZt5Cj99yg1YU8u4yWaTfCubsPtmsZz2Bh5QY4xtZ9ScuSMTdrNGXqQIOqDGPIW/EQprE4biFD6j1xJ2L1A2NzLoPXbz2fXZVXhO4Qm7GRpfU+S84+3r50y2uzgWPiuQhgdfMu3OkT0EHOLXW7Pf8Pb/68yx8JzCC61M2IVCuZ5sboHK9QbL2mf0vTP+kWMgTY62hF3W6ZxOFfC2W/GNNFmXdfT8bviijkrYncZY1rhgt91ML7QuYQiFaEIlxsIXdBnCLuPJ6VR6CbdA4YjTjSzfOOM59Llrs3mctVBlwl6+EzqXQw9xB4BF5xpWp0Hmhbn5izp4nJWw1+lzPuQNcCVesjA3u7deuEXngx1tt5Eju22FWyg/uJV401PMWQtz3Fs39jTCbpTI7QRBXh9tOvTChblKnZKwV5LNnUwBxsQbQ10zFuYitYJld6ziZksIu5t2EbcquJh40wMQWTfocmFO1F8Iu0gmdxMFtjgn2W57CMDeCYtwYU7YPQm7UChXkwW1OGfabsuOmNurVnHcVfu41C7C7pI1SrYlsMU5Y/Rbxsk+Y56SkgadnLB7bN6Mq5P9/RrTqJ59lHVBreBefz+63ZYT9nb1brS2gM6wG0fojIXITWxht7odpxoVNeDCCLvHxg3m6mjTtVPjUX1j5mVWbreV7LuEvaRgriQP6FircYTOdFe43Va6KxL20pK5kSGYYBpDaGys9lwQDa+JrtQJCXsl2brPFMhJN47qLXYlwt6i2E1WFYS/Ljh/zlG9uV5D2JvTsrWSAvHXJSvws5dJAny/rXI/I+yVpesuYxD+umFfPcdXN4bTdmcV92sm7O7baK6FAeyvc1TvoN8R9g5Er1tlhh9bt8h28wsumsj4Ro7qNa1E2GsK2HZ2fQivxwDrbdfbYH1GaDP31emr1zYBYa8tYbsFeH+TrABajup2+hRht6OrtVI9P79uvoVmCVyBt9R7CLslYW0U6/mW2ybOYI86jCfytEm/L3ZRdk+kMU77bWgdYpmE3SOren2kVRIWO3+RJMAY+MZ6KGFvTEr7BekhZu9Kt19pMzWYt9qyTrYxBr4Z9dNSCHujctotzNsrqGRbbfcAWJhSkKN6ox2KsDcqp73CPI6aM/rcmddrCab99tQOs2TC7oldPY2aMy7KxfJn7DAYT8N5YjanmknYnTJHfmO8nMILRufMGYvgNJwnZnOqmYTdKXNkN8bTVfh1tYyrTfJmBNAYF/NMZfL3bAUIuwc9w8tVeEmkXNZWmyCfByZzsomE3UmznGuUp4E0R9Qybi2SNl2UiwNoLp1Ix9ddLPZHwm5R3CaK9nAKv4Et7DFd8ZwxWxEt5jWhaV/LIOyOW96766cE0/CcRTleDW25LxJ2ywLXKT6Z6p6PE0kZGj7Yyjx9H0fKzca/c1GuTkcR5vWhAwk/JbxkeoiPQOEWAAMPgJdO3+8AsDhlLcFsIDzrtv9FhL19zcU16iEeT06AqWRUdxt4AbA5F29wUU7cI+olJOz19LOWWy/h7VD4qwT0eArvMvCC4JnEExniEQB7JkRjpJy1HjRfMGFvUewyVekh/hwK1+2A7i7wsuCZrD11RsqV6RK10xL22hI2X4Ae4jsAfC6Zuk+O7O4Bv5ne4/5okQo503fjAZnmle13iYTdQfvrIW4H8OtA6qu7CrxwZM6cvhturXHQLN43ibA7aEI9xFNpZFlsn/HinHvAixbWMt5Vj7cRF9UK7nRQ+qCbRNgdM6+O8PPQuHsH7jHsrgEv22bLvvaa0/eO+hxh70j4vGp1hHXo5MLF8Qr8OJjGLeBH2KNWUeynZwfPMCS2w/5G2DsUf7ZqfQg/igEeSCGP99XdA144Bc98UlqY1yGTBNUUwu6QOXWEo9D4sQnIXQNe6qdfB4WjM9KK8jpkjuCaQtgdMak+gFfhfDw8NW0fT+NdAX4dW9hrPM0Wx/PvSmLfJ4+uMnjGgX5G2B0wQtwEHeEIgJ9LVt4n/XQ3gBftpyffMcRDAPZOySq4XdYRMwTdDMLugHl1hCsA/PNUWKxLwAthzdxmA4wn4RwwQS+aQNgdMLOO8HvQuGEuDt4F4KVx74fwJgxwbEZOUSitAyboRRMIe8dmTkZ1jX/KDZqZB356z93utpxoUS29Omtjzk8fn4Qr3KLrWP5eVU/YOza3jvBhaLyrMEquG+BFC3Kpnz57mi2OkltQK7i3Y3lZ/YQChL3D7qAP4NuxC5+cCJ7JD4ttF3hx8EvmfjrfaOuwV+VXTdg7NIuO8CFo/OxM8EzXwMtX3rPeUgfEM4IOpe9l1YS9I7Mno/r5OJ6xzVYcBy8d4bcvu9g+Fis9HiucfqfHVuMFuen9dJ5m66hHmasl7GaNrKTQEX4XwDtz9tW7AV4YzpqzIBf76fvUCu63IhgLra0AYa8tYfkCdIRvA/D3hn31toFfU8u4SfI1mddbC7foJOUzjR0FCLsdXQtL1RHWoPHDgn31toC/twTo8++oA6Itug6kZpVcje+uD+gIb4BOtqTGx1ZnL5Q0+eRl00/Wsx2KO13GYziNN5ti3pMttiXcApWE9U7+cUGuu+5UqmaO7KXkqp9YR/gTaPxgejV0t8ADMejXCkG/EQprMwqIt+jqK8cS6ipA2OsqWCK/jvAOaKxO7at3N8I/hi38pAj08Y0zsyvvgOASixLyMKllBQi7ZYG3i9cRXgzg4wBeMnU99Pjxh3ZHeOD/oPBTKsJjps/P2WJjhJxJOAd/J+wtGUVH+FVovC8zLLZd4GPQ3yYCfXy1VDyiTz7sEIPORxhb6jdNVkPYm1Qzpyx9G16J83eum8pfYZ+9qGIyMGZ29C+6cTZvkS8e0Uf4abWKz5o+O91LnwedobAm6Zz9nbC3YBod4aPQeIMoLNYW8DHoZ/F2CejJyvv8U03xf+bNsC30F1tVEHZbyqbl6ghvBJIY+HO3xJ67NTY7Dr554OOp+ztUhH+TfK4eImsvnVtsEvEcTkPYLRonWZTT+GsofFPpsNimgI9HdGAfQbdoaE+KJuwWDaWXcDMGuKFyWGwW8OMZwvwKfrYP/yzOYr9axb9LPjNnRBefgpPUwTTdKUDYLWmvo2QF+67MV1jrTullwMegX0/QLRnYw2IJuyWj6SE+BuDVla+bmn7bbfo66UmfP2uVfrzq/m6Cbsm4nhZL2C0YTkd4L4CFdFGu+mUU1YB/Fgo3qAj/Ifk0Tt0lKoWRhrA3bEd9EFdhF/5wLkou7xXWZqf0MejvqQk6o+Ma7hOuFEfYG7aEHuJuAN89N32vEgST9Q9E/qLd53EG71eH8WXJJ+WM6ARdIp6naQh7g4bTS3gfBti/s802C6st4IHP4zR+QX0Iz0o+h6BLVAovDWFvyKb6EF6H83D73DabbeDHoL+XoDdkyICLIewNGFd/AJfgEtwF4BWZl1HYA/5+tYwD0k/giC5VKsx0hL0Bu+ohboPCNaWm73Wn9MADKsJBSfPTQy3xDTMLM+njgJl9ahXHJeUwjd8KEPaa9tMRfgbAr1SavlcFHlhSER6QNL3g9Boj4yQCBpSGsNcwpo6wO7l5Bnhx5el7OeC/DoWhiuYeUMz8CoJew7gBZiXsFY2qI7wIGssAvqswSk7ir0uAV/gagPerCF+QNDn3hhmAI7pEwADTEPaKRtURPgDgh0RRchLgi15w0XgcCr+mogR4458eP598dOa1ljjfOs5gnzqMJ4yFMEFwChD2CibVS3gbBrixVJRcdeD/BsARMejZ76+NQd/CXskFkxUkYRYPFCDsJY2kD+I12IVDc6fZtk+iFYXFlgVe4y61gr+UNjHnRdU4+1FsYYGgS5UMMx1hL2FXHeFboHEYCpeU2mbLm6Ln/wPxdQAHVYR1SfPShbj4Tvd9GenFzzpJ6mIafxUg7ELbpQtyH4TClZW22eTAfwnjrbX/kjRNH8CV2JX459M3wMaZhQ81SuphGv8VIOxCG+ol/DIG+PHcyyjKTtGz0mt8As/ho+rDiEd241/BQtwmxk8v80VVo4r9SUDYBbZOX3K5LvPOd/mIrQpnBCN8RK3gbwXNSZLkvLsW/7SRRsU9Ki2L6fqhAGE32Fkfwo9ggF+aerKpyUU44CtQWFUR/lPS5QpCX+PsXHGXiNjTNIS9wPA6whXQOFT6bLp0Sj/Cp/EcjpSYtsdvrsULcfP+OR9v6CnC8s8m7DlapaDfCuBFpabvWc8iz666A89B48/UCh6UmkqP98/jwyyXzuUZ++fxM9D8owK5ChD2DGn0rbgYL8FKArrpQYfsN88HufvwsU+t8PsqwoakXxqm7Qx9lYjINIkChH2mI6Sg3wzgVbWm79n/CMSvuP6FivCcpP+l8e150/Zj2MI+BspIlGQawj4LeoSLAPwGgCsaCZrZBj6etivcrSL8q7TbpavtUc60na+oSoVkuh0FOLJPdAYd4TcT0GMfu6ktNeAzAP5APJqPn0nOi4bjZROEt7IChD2VTkd4984ptsnVdMmCW3b60ziLj6lVPCy1jl7CdVAJ6POLcACn7VIhmS5TAcI+DlB5F1TypHLxgw7SLTWNL0Dhj1WE/5b0u3QRLp6yL2am1+C0XSIk0xQq0HvY9RKuT0Cvsuo+f5DlNEZ4sFQk3PjseTya786wFKPhCHBjCvQadh3hndD4gVqr7ueAfxSncI+6A6cl1jGO5sARbCHiartETaaRKNBb2PUS9mOAq2uvugNbGOFP1SrEseipbx4HyGSN5jzEIum5TFNagd7Brm/GhbgMb01Ar7vqrnEMz+LjJUfzvJX22Hi8ZKJ0F2YGqQK9gj0B/WW4ESO8MhEoXo6rArzGSQxwn4rwRanQhfvm8SWQPJIqlZLpKirQG9hT0H8xebVllEQOxm+elwM+nrIDn1AR/kGqtyEKLi5mDVtYpG8uVZTpqirQC9iTxbCLcT00XpGM5PGIngd83lVRGp/BAPerKAHe+CdYgItX2hf4GotRSiZoSIHgYdcRLscI74HCxVOHU6TAj3ACA/yd9Lx5bBfDlD2+LirC8zjC0byhXsxiRAoEDXtyTHWUPKF8UWb4axHwI5zCAA+pKAl3Ff2l10Tl7ZnHZRzDCItlVu5FFTMRFRAoECzsOsJrAbw1ma5vQ50V7z4LvMLzUPgUgE+Jp+zjSx9jyPfmaB4vwC3yzLmgRzKJNQWChF1HeCNG6R76Nswy4B/DAMdVhE2J4oaz5ttFMDhGIibTWFcgKNh1hAsAvAUjXDW1CGcCXuFJnMaDUh86gfxCLEIlsexZh1bGU/YzWOBTS9b7MCsQKhAM7PqDeBkuxLUY4eU7oE9O0bOAV3gaGp9Uy3hSopcQcq6yS8RkmtYVCAL25KGE8/ATGODCZOd80k/PAh54Gmfxj+ownpIqblxhHwfG0C+XCsp0rSvgPew6wjUY4XVTo3ke8AN8OV14e1qqdHrRY3z8NCuOPS4mhvwIt9KkijJdVwp4C3vin49wLQZJ6Ov8aD7534CTeAGfVocT2I1/wul6XA4X34xqMoErCngJu74N34pd6bR9e8qePZo/gwH+RUU4KRG8BORrOIOIi28SVZnGFQW8g10fSs6fv3ZuES72zc8B/wy+gYfV7+AZidDp44jxyvpCwep6XBQhlwjKNE4q4A3sOkq2uK4B8M07ce2zK+waX8R5eERF+JpE7TTiLQY8/l/RHyGXCMo0TivgBez6IL4HA3xfsto+udIej+QDvICz+BLOw+fEkI9fV4kBz4t42zYaIXe6+7JxZRRwGvbkTXQkF0FePrcIF9/FPsBncRJPqT/CC6aPnvDHY8jzVtbjYsar62exRp/cpCp/90kBZ2HXB3EVduE1QLLqPo5vH1/rfBJncEK8sj6+0FEyVd+Axhq30HzqvmxrGQWcgz15fumluHoqEg44A40ncR4elzy2kI7iC2k4a9EoHmu1Ho/kPKRSptswrY8KOAV76pu/emelXeN/MMBT4nDWQ4ifNN5eVTfZYw0jrPHyCJNM/D0UBZyAXf82LsP5+H6oxEc/gzjS7RROSC9y3DZGegXUeoFx6I+H0nP5HaUV6BR2HT+keBbfC4XLMcBXAZxUEb5S+ismMughTmQswB2L/XFO1esoy7y+K9AJ7DrCruQBxbN4Oc7iaVyAr6oIZ5oQMz2wEt/JHp9Jj7fOjnBVvQllWYbvCnQDexzuegFOSW+CKSNyuji3V63g/jL5mJYKhK5AJ7CHLiq/jwq4qABhd9EqbBMVsKAAYbcgKoukAi4qQNhdtArbRAUsKEDYLYjKIqmAiwr8PwY3ubQHK5rSAAAAAElFTkSuQmCC;rotation=-63;" vertex="1" parent="1">
          <mxGeometry x="450" y="220" width="91" height="92.45" as="geometry" />
        </mxCell>
      </root>
    </mxGraphModel>
  </diagram>
</mxfile>
